<mxfile host="Electron" agent="Mozilla/5.0 (Windows NT 10.0; Win64; x64) AppleWebKit/537.36 (KHTML, like Gecko) draw.io/26.0.4 Chrome/128.0.6613.186 Electron/32.2.5 Safari/537.36" version="26.0.4">
  <diagram name="Trang-1" id="Rc-HM_zkAHXDG9yjyM6y">
    <mxGraphModel dx="1050" dy="621" grid="1" gridSize="10" guides="1" tooltips="1" connect="1" arrows="1" fold="1" page="1" pageScale="1" pageWidth="850" pageHeight="1100" math="0" shadow="0">
      <root>
        <mxCell id="0" />
        <mxCell id="1" parent="0" />
        <mxCell id="LmjekGwBckMW5HlDYEAB-1" value="Khách hàng thành viên" style="swimlane;whiteSpace=wrap" parent="1" vertex="1">
          <mxGeometry x="600" y="370" width="320" height="740" as="geometry" />
        </mxCell>
        <mxCell id="LmjekGwBckMW5HlDYEAB-2" value="" style="ellipse;shape=startState;fillColor=#000000;strokeColor=#ff0000;" parent="LmjekGwBckMW5HlDYEAB-1" vertex="1">
          <mxGeometry x="105.5" y="30" width="30" height="30" as="geometry" />
        </mxCell>
        <mxCell id="LmjekGwBckMW5HlDYEAB-3" value="" style="edgeStyle=elbowEdgeStyle;elbow=horizontal;verticalAlign=bottom;endArrow=open;endSize=8;strokeColor=#FF0000;endFill=1;rounded=0;exitX=0.5;exitY=1;exitDx=0;exitDy=0;entryX=0.5;entryY=0;entryDx=0;entryDy=0;" parent="LmjekGwBckMW5HlDYEAB-1" source="LmjekGwBckMW5HlDYEAB-2" target="LmjekGwBckMW5HlDYEAB-4" edge="1">
          <mxGeometry x="100" y="40" as="geometry">
            <mxPoint x="180" y="80" as="targetPoint" />
          </mxGeometry>
        </mxCell>
        <mxCell id="LmjekGwBckMW5HlDYEAB-4" value="Chọn chức năng cập nhật thông tin KH" style="rounded=1;whiteSpace=wrap;html=1;" parent="LmjekGwBckMW5HlDYEAB-1" vertex="1">
          <mxGeometry x="60.5" y="112" width="120" height="60" as="geometry" />
        </mxCell>
        <mxCell id="LmjekGwBckMW5HlDYEAB-5" value="Nhập thông tin cần cập nhật" style="rounded=1;whiteSpace=wrap;html=1;" parent="LmjekGwBckMW5HlDYEAB-1" vertex="1">
          <mxGeometry x="61" y="350" width="120" height="60" as="geometry" />
        </mxCell>
        <mxCell id="7D7qG8DJOBn7EV6xzUgt-2" value="Đăng nhập" style="rounded=1;whiteSpace=wrap;html=1;" vertex="1" parent="LmjekGwBckMW5HlDYEAB-1">
          <mxGeometry x="61" y="190" width="120" height="60" as="geometry" />
        </mxCell>
        <mxCell id="LmjekGwBckMW5HlDYEAB-17" value="Thông báo lỗi, chỉnh sửa lại thông tin" style="rounded=1;whiteSpace=wrap;html=1;" parent="LmjekGwBckMW5HlDYEAB-1" vertex="1">
          <mxGeometry x="61" y="433" width="120" height="60" as="geometry" />
        </mxCell>
        <mxCell id="7D7qG8DJOBn7EV6xzUgt-14" value="" style="endArrow=classic;html=1;rounded=0;strokeColor=light-dark(#ff0000, #ededed);" edge="1" parent="LmjekGwBckMW5HlDYEAB-1" source="LmjekGwBckMW5HlDYEAB-17" target="LmjekGwBckMW5HlDYEAB-5">
          <mxGeometry width="50" height="50" relative="1" as="geometry">
            <mxPoint x="230" y="460" as="sourcePoint" />
            <mxPoint x="280" y="410" as="targetPoint" />
          </mxGeometry>
        </mxCell>
        <mxCell id="LmjekGwBckMW5HlDYEAB-10" value="Hệ thống" style="swimlane;whiteSpace=wrap" parent="1" vertex="1">
          <mxGeometry x="920" y="370" width="370" height="740" as="geometry" />
        </mxCell>
        <mxCell id="LmjekGwBckMW5HlDYEAB-13" value="Kiểm tra đăng nhập" style="rounded=1;whiteSpace=wrap;html=1;" parent="LmjekGwBckMW5HlDYEAB-10" vertex="1">
          <mxGeometry x="193.5" y="112" width="120" height="60" as="geometry" />
        </mxCell>
        <mxCell id="LmjekGwBckMW5HlDYEAB-14" value="Cập nhật thông tin KH" style="rounded=1;whiteSpace=wrap;html=1;" parent="LmjekGwBckMW5HlDYEAB-10" vertex="1">
          <mxGeometry x="192.5" y="541" width="120" height="60" as="geometry" />
        </mxCell>
        <mxCell id="LmjekGwBckMW5HlDYEAB-15" value="" style="endArrow=open;strokeColor=#FF0000;endFill=1;rounded=0;exitX=0.5;exitY=1;exitDx=0;exitDy=0;entryX=0.5;entryY=0;entryDx=0;entryDy=0;" parent="LmjekGwBckMW5HlDYEAB-10" source="LmjekGwBckMW5HlDYEAB-13" target="J7NCaagc_p0eEUbQ0ngO-1" edge="1">
          <mxGeometry relative="1" as="geometry">
            <mxPoint x="-87" y="272" as="sourcePoint" />
            <mxPoint x="373.5" y="328" as="targetPoint" />
            <Array as="points" />
          </mxGeometry>
        </mxCell>
        <mxCell id="LmjekGwBckMW5HlDYEAB-20" value="Xác nhận cập nhật" style="rounded=1;whiteSpace=wrap;html=1;" parent="LmjekGwBckMW5HlDYEAB-10" vertex="1">
          <mxGeometry x="193.5" y="659" width="120" height="60" as="geometry" />
        </mxCell>
        <mxCell id="LmjekGwBckMW5HlDYEAB-21" value="" style="endArrow=open;strokeColor=#FF0000;endFill=1;rounded=0;" parent="LmjekGwBckMW5HlDYEAB-10" source="LmjekGwBckMW5HlDYEAB-14" target="LmjekGwBckMW5HlDYEAB-20" edge="1">
          <mxGeometry relative="1" as="geometry">
            <mxPoint x="253.75862068965534" y="601" as="sourcePoint" />
            <mxPoint x="278" y="639" as="targetPoint" />
            <Array as="points" />
          </mxGeometry>
        </mxCell>
        <mxCell id="LmjekGwBckMW5HlDYEAB-25" value="Tài khoản" style="rounded=0;whiteSpace=wrap;html=1;" parent="LmjekGwBckMW5HlDYEAB-10" vertex="1">
          <mxGeometry x="205.5" y="39" width="96" height="40" as="geometry" />
        </mxCell>
        <mxCell id="LmjekGwBckMW5HlDYEAB-26" value="" style="endArrow=classic;strokeColor=#FF0000;endFill=1;rounded=0;dashed=1;" parent="LmjekGwBckMW5HlDYEAB-10" source="LmjekGwBckMW5HlDYEAB-13" target="LmjekGwBckMW5HlDYEAB-25" edge="1">
          <mxGeometry relative="1" as="geometry">
            <mxPoint x="306" y="292" as="sourcePoint" />
            <mxPoint x="306" y="338" as="targetPoint" />
            <Array as="points" />
          </mxGeometry>
        </mxCell>
        <mxCell id="LmjekGwBckMW5HlDYEAB-8" value="Thông báo cập nhật thành công" style="rounded=1;whiteSpace=wrap;html=1;" parent="LmjekGwBckMW5HlDYEAB-10" vertex="1">
          <mxGeometry x="29" y="659" width="120" height="60" as="geometry" />
        </mxCell>
        <mxCell id="LmjekGwBckMW5HlDYEAB-7" value="" style="ellipse;shape=endState;fillColor=#000000;strokeColor=#ff0000" parent="LmjekGwBckMW5HlDYEAB-10" vertex="1">
          <mxGeometry x="73" y="556" width="30" height="30" as="geometry" />
        </mxCell>
        <mxCell id="LmjekGwBckMW5HlDYEAB-9" value="" style="endArrow=classic;html=1;rounded=0;fillColor=#e51400;strokeColor=#FF0000;" parent="LmjekGwBckMW5HlDYEAB-10" source="LmjekGwBckMW5HlDYEAB-8" target="LmjekGwBckMW5HlDYEAB-7" edge="1">
          <mxGeometry width="50" height="50" relative="1" as="geometry">
            <mxPoint x="88" y="659" as="sourcePoint" />
            <mxPoint x="48" y="679" as="targetPoint" />
            <Array as="points" />
          </mxGeometry>
        </mxCell>
        <mxCell id="36R-q21DX2us5p8R1hVL-1" value="" style="endArrow=open;strokeColor=#FF0000;endFill=1;rounded=0;" parent="LmjekGwBckMW5HlDYEAB-10" source="LmjekGwBckMW5HlDYEAB-20" target="LmjekGwBckMW5HlDYEAB-8" edge="1">
          <mxGeometry relative="1" as="geometry">
            <mxPoint x="264" y="611" as="sourcePoint" />
            <mxPoint x="148" y="689" as="targetPoint" />
            <Array as="points" />
          </mxGeometry>
        </mxCell>
        <mxCell id="J7NCaagc_p0eEUbQ0ngO-1" value="" style="rhombus;fillColor=#ffffc0;strokeColor=#ff0000;" parent="LmjekGwBckMW5HlDYEAB-10" vertex="1">
          <mxGeometry x="213.5" y="266" width="80" height="48" as="geometry" />
        </mxCell>
        <mxCell id="7D7qG8DJOBn7EV6xzUgt-6" value="" style="rhombus;fillColor=#ffffc0;strokeColor=#ff0000;" vertex="1" parent="LmjekGwBckMW5HlDYEAB-10">
          <mxGeometry x="213.5" y="440" width="80" height="48" as="geometry" />
        </mxCell>
        <mxCell id="7D7qG8DJOBn7EV6xzUgt-8" value="Kiểm tra thông tin hợp lệ" style="rounded=1;whiteSpace=wrap;html=1;" vertex="1" parent="LmjekGwBckMW5HlDYEAB-10">
          <mxGeometry x="194" y="347" width="120" height="60" as="geometry" />
        </mxCell>
        <mxCell id="7D7qG8DJOBn7EV6xzUgt-10" value="" style="endArrow=classic;html=1;rounded=0;strokeColor=light-dark(#ff0000, #ededed);" edge="1" parent="LmjekGwBckMW5HlDYEAB-10" source="7D7qG8DJOBn7EV6xzUgt-8" target="7D7qG8DJOBn7EV6xzUgt-6">
          <mxGeometry width="50" height="50" relative="1" as="geometry">
            <mxPoint x="230" y="470" as="sourcePoint" />
            <mxPoint x="280" y="420" as="targetPoint" />
          </mxGeometry>
        </mxCell>
        <mxCell id="7D7qG8DJOBn7EV6xzUgt-12" value="Đúng" style="endArrow=classic;html=1;rounded=0;strokeColor=light-dark(#ff0000, #ededed);" edge="1" parent="LmjekGwBckMW5HlDYEAB-10" source="7D7qG8DJOBn7EV6xzUgt-6" target="LmjekGwBckMW5HlDYEAB-14">
          <mxGeometry width="50" height="50" relative="1" as="geometry">
            <mxPoint x="60" y="510" as="sourcePoint" />
            <mxPoint x="110" y="460" as="targetPoint" />
          </mxGeometry>
        </mxCell>
        <mxCell id="7D7qG8DJOBn7EV6xzUgt-1" value="" style="endArrow=none;html=1;rounded=0;strokeColor=light-dark(#ff0000, #ededed);startArrow=classic;startFill=1;endFill=0;" edge="1" parent="1" source="LmjekGwBckMW5HlDYEAB-13" target="LmjekGwBckMW5HlDYEAB-4">
          <mxGeometry width="50" height="50" relative="1" as="geometry">
            <mxPoint x="800" y="620" as="sourcePoint" />
            <mxPoint x="850" y="570" as="targetPoint" />
          </mxGeometry>
        </mxCell>
        <mxCell id="LmjekGwBckMW5HlDYEAB-18" value="" style="endArrow=classic;html=1;rounded=0;fillColor=#e51400;strokeColor=#FF0000;" parent="1" source="J7NCaagc_p0eEUbQ0ngO-1" target="7D7qG8DJOBn7EV6xzUgt-2" edge="1">
          <mxGeometry width="50" height="50" relative="1" as="geometry">
            <mxPoint x="1150" y="760" as="sourcePoint" />
            <mxPoint x="1015.5" y="732" as="targetPoint" />
            <Array as="points">
              <mxPoint x="721" y="660" />
            </Array>
          </mxGeometry>
        </mxCell>
        <mxCell id="7D7qG8DJOBn7EV6xzUgt-3" value="Sai" style="edgeLabel;html=1;align=center;verticalAlign=middle;resizable=0;points=[];" vertex="1" connectable="0" parent="LmjekGwBckMW5HlDYEAB-18">
          <mxGeometry x="-0.1632" y="2" relative="1" as="geometry">
            <mxPoint as="offset" />
          </mxGeometry>
        </mxCell>
        <mxCell id="LmjekGwBckMW5HlDYEAB-11" value="Đúng" style="edgeStyle=elbowEdgeStyle;elbow=horizontal;strokeColor=#FF0000;endArrow=open;endFill=1;rounded=0;exitX=0.5;exitY=1;exitDx=0;exitDy=0;" parent="1" source="J7NCaagc_p0eEUbQ0ngO-1" target="LmjekGwBckMW5HlDYEAB-5" edge="1">
          <mxGeometry width="100" height="100" relative="1" as="geometry">
            <mxPoint x="1095.5" y="766" as="sourcePoint" />
            <mxPoint x="1060.5" y="732" as="targetPoint" />
            <Array as="points">
              <mxPoint x="720" y="710" />
            </Array>
          </mxGeometry>
        </mxCell>
        <mxCell id="7D7qG8DJOBn7EV6xzUgt-4" value="" style="endArrow=classic;html=1;rounded=0;strokeColor=#FF0000;" edge="1" parent="1" source="7D7qG8DJOBn7EV6xzUgt-2" target="LmjekGwBckMW5HlDYEAB-13">
          <mxGeometry width="50" height="50" relative="1" as="geometry">
            <mxPoint x="800" y="630" as="sourcePoint" />
            <mxPoint x="850" y="580" as="targetPoint" />
            <Array as="points">
              <mxPoint x="1120" y="590" />
            </Array>
          </mxGeometry>
        </mxCell>
        <mxCell id="7D7qG8DJOBn7EV6xzUgt-7" value="" style="endArrow=classic;html=1;rounded=0;strokeColor=light-dark(#ff0000, #ededed);" edge="1" parent="1" source="LmjekGwBckMW5HlDYEAB-5" target="7D7qG8DJOBn7EV6xzUgt-8">
          <mxGeometry width="50" height="50" relative="1" as="geometry">
            <mxPoint x="782" y="750.6408544726303" as="sourcePoint" />
            <mxPoint x="1030" y="770" as="targetPoint" />
            <Array as="points" />
          </mxGeometry>
        </mxCell>
        <mxCell id="7D7qG8DJOBn7EV6xzUgt-13" value="Sai" style="endArrow=classic;html=1;rounded=0;strokeColor=light-dark(#ff0000, #ededed);" edge="1" parent="1" source="7D7qG8DJOBn7EV6xzUgt-6" target="LmjekGwBckMW5HlDYEAB-17">
          <mxGeometry width="50" height="50" relative="1" as="geometry">
            <mxPoint x="970" y="870" as="sourcePoint" />
            <mxPoint x="1020" y="820" as="targetPoint" />
          </mxGeometry>
        </mxCell>
      </root>
    </mxGraphModel>
  </diagram>
</mxfile>
